<svg width="24" height="24" viewBox="0 0 24 24" fill="none" xmlns="http://www.w3.org/2000/svg">
<path d="M19.1029 9.23921L19.5072 9.38661C20.8012 9.85717 21.4688 11.2876 20.9982 12.5817C20.8874 12.8865 20.7181 13.1667 20.4999 13.4067L20.3362 13.5868C18.7878 15.2901 16.9883 16.7468 14.9999 17.9067L12.0503 19.6273C12.0192 19.6455 11.9807 19.6455 11.9496 19.6273L8.99994 17.9067C7.01161 16.7468 5.2121 15.2901 3.66368 13.5868L3.49994 13.4067C2.57373 12.3879 2.64881 10.8111 3.66765 9.88487C3.90764 9.6667 4.18789 9.49745 4.4927 9.38661L4.89754 9.23798M8.69402 15.2487L5.49731 10.9865C4.5032 9.66104 4.77183 7.78064 6.09731 6.78653C6.35527 6.59306 6.64273 6.44245 6.94863 6.34048L7.49994 6.15671C7.88094 6.02971 8.26598 5.91927 8.65399 5.8254L8.83619 5.78251C8.50977 6.38508 8.4146 7.10799 8.61424 7.80674M8.61424 7.80674L10.4532 14.2437M8.61424 7.80674C8.25805 6.56009 8.84029 5.23653 9.99994 4.65671C11.259 4.02719 12.7409 4.02719 13.9999 4.65671C15.1596 5.23653 15.7418 6.56009 15.3856 7.80674M13.5462 14.2435L15.3856 7.80674M15.3856 7.80674C15.5852 7.10838 15.4902 6.38589 15.1642 5.78352C15.6137 5.88523 16.0595 6.0099 16.4999 6.15671L17.0513 6.34048C18.6231 6.86442 19.4726 8.56338 18.9486 10.1352C18.8467 10.4411 18.696 10.7286 18.5026 10.9865L15.3053 15.2482" stroke="currentColor" stroke-linecap="round"/>
<path fill-rule="evenodd" clip-rule="evenodd" d="M16.9998 16.5936L17 18.4999C17 19.3283 16.3284 19.9999 15.5 19.9999H8.49997C7.67155 19.9999 6.99997 19.3283 6.99997 18.4999L6.99902 16.5928C7.64149 17.0652 8.30934 17.5039 8.99997 17.9067L11.9496 19.6273C11.9807 19.6455 12.0192 19.6455 12.0504 19.6273L15 17.9067C15.6902 17.5041 16.3576 17.0657 16.9998 16.5936Z" stroke="currentColor" stroke-linecap="round"/>
</svg>
