<svg width="24" height="24" viewBox="0 0 24 24" fill="none" xmlns="http://www.w3.org/2000/svg">
<path d="M3.70026 12.348C5.35308 13.6108 6.43308 15.4814 6.70026 17.5442M2.76577 13.2589L3.11198 13.5099C4.40286 14.4459 5.23473 15.8867 5.39987 17.4727L5.49479 18.3842C5.57083 19.1144 6.22441 19.6447 6.95462 19.5687C7.0329 19.5605 7.1103 19.5455 7.18591 19.5236C8.07979 19.2654 8.67766 18.425 8.62851 17.4958L8.46556 14.4151C8.38468 12.8861 7.57489 11.4887 6.28842 10.6583L5.98582 10.463C4.95009 9.79448 3.59818 9.88586 2.66183 10.6877C1.97445 11.2763 1.89439 12.3107 2.48302 12.9981C2.56671 13.0958 2.66161 13.1834 2.76577 13.2589Z" stroke="currentColor" stroke-linecap="round"/>
<path d="M13.8429 4.80329C12.5732 6.45082 12.0142 8.53722 12.29 10.5988M14.9813 5.44128L14.7119 5.77337C13.7072 7.01156 13.2766 8.6186 13.5276 10.1932L13.6718 11.0983C13.7874 11.8233 13.2933 12.5047 12.5683 12.6202C12.4906 12.6326 12.4119 12.6381 12.3332 12.6366C11.403 12.6185 10.6079 11.9614 10.4149 11.0512L9.775 8.03332C9.45738 6.53544 9.87792 4.97613 10.9056 3.84108L11.1474 3.5741C11.9748 2.66027 13.3043 2.39863 14.4162 2.93079C15.2326 3.32146 15.5776 4.2999 15.1869 5.11621C15.1314 5.23227 15.0624 5.34138 14.9813 5.44128Z" stroke="currentColor" stroke-linecap="round"/>
<path d="M14.2396 16.85C16.1629 16.058 17.6903 14.5307 18.4823 12.6074M13.5727 15.7283L13.9721 15.5754C15.4612 15.0054 16.6377 13.829 17.2077 12.3399L17.5353 11.4839C17.7977 10.7983 18.5663 10.4552 19.2519 10.7176C19.3254 10.7458 19.3963 10.7804 19.4637 10.821C20.2603 11.3019 20.6202 12.2684 20.3323 13.1531L19.3775 16.0867C18.9037 17.5427 17.7598 18.6828 16.3023 19.1519L15.9594 19.2623C14.786 19.64 13.5038 19.2018 12.8068 18.185C12.2952 17.4385 12.4856 16.4186 13.2321 15.907C13.3382 15.8343 13.4526 15.7743 13.5727 15.7283Z" stroke="currentColor" stroke-linecap="round"/>
</svg>
