<svg width="24" height="24" viewBox="0 0 24 24" fill="none" xmlns="http://www.w3.org/2000/svg">
<g clip-path="url(#clip0_1453_7169)">
<path d="M16.5254 10.6656C16.616 10.7572 16.685 10.8641 16.731 10.9789L18.0192 10.9729C18.392 10.9709 18.7288 10.75 18.8793 10.4089C19.0749 9.96526 18.9022 9.45233 18.4939 9.21264L18.4106 9.16996L19.3589 8.84989C19.5961 8.76968 19.7918 8.59864 19.9031 8.3743C20.1351 7.90649 19.944 7.33919 19.4761 7.10718L19.1043 6.92207L19.371 6.65629C19.9214 6.10584 19.9214 5.2134 19.371 4.66296C18.8205 4.11251 17.9281 4.11251 17.3776 4.66296L17.0996 4.94005L16.8927 4.52375C16.7815 4.29941 16.5857 4.12837 16.3485 4.04816C15.8539 3.8809 15.3173 4.14632 15.15 4.64099L14.8567 5.50573L14.8494 5.48456C14.7141 5.11663 14.3646 4.87137 13.9726 4.86925C13.4537 4.86646 13.0307 5.28487 13.0279 5.8038L13.0206 7.22932C13.1084 7.27322 13.1903 7.33127 13.2627 7.40286M16.5254 10.6656C16.1582 10.2944 15.5595 10.2911 15.1883 10.6584L5.84158 19.9048C5.61168 20.1323 5.28148 20.2264 4.9662 20.1545M16.5254 10.6656C16.8006 10.9437 16.8758 11.3623 16.7155 11.7184L17.5341 11.3139C18.0022 11.0824 18.5693 11.2741 18.8008 11.7422C18.9118 11.9666 18.9293 12.226 18.8493 12.4633L18.6814 12.961L19.5915 12.9611C20.3254 12.9611 20.9204 13.5561 20.9204 14.29C20.9204 15.024 20.3254 15.6189 19.5915 15.6189L18.6814 15.618L18.8493 16.1168C19.016 16.6116 18.75 17.148 18.2552 17.3147C18.0179 17.3946 17.7586 17.3772 17.5341 17.2662L16.6384 16.823L16.666 16.9111C16.7852 17.3692 16.5446 17.854 16.0925 18.0294C15.745 18.1643 15.3506 18.0823 15.0856 17.8201L12.8606 15.6189L7.47397 20.9477C6.73719 21.6766 5.55098 21.6766 4.8142 20.9477L3.72615 19.8714L4.9662 20.1545M4.9662 20.1545L3.9959 19.9325L3.77382 18.9621M3.77382 18.9621C3.70184 18.6468 3.796 18.3166 4.02343 18.0867M3.77382 18.9621L4.05691 20.2021L2.98054 19.1141C2.25165 18.3773 2.25165 17.1911 2.98054 16.4543L8.30935 11.0677L6.10818 8.84265C5.84599 8.57763 5.76402 8.18328 5.89886 7.83572C6.07424 7.38367 6.55907 7.14312 7.01721 7.26228L7.10523 7.28991L6.6621 6.39416C6.55107 6.16971 6.53363 5.91037 6.61359 5.67307C6.78032 5.17823 7.31663 4.91224 7.81148 5.07898L8.31023 5.24691L8.30935 4.33679C8.30935 3.60287 8.90431 3.00791 9.63824 3.00791C10.3722 3.00791 10.9671 3.60287 10.9671 4.3368L10.9672 5.24691L11.465 5.07898C11.7023 4.99902 11.9616 5.01647 12.1861 5.12749C12.6541 5.35901 12.8459 5.92611 12.6144 6.39416L12.2098 7.21276C12.566 7.0525 12.9846 7.12771 13.2627 7.40286M4.02343 18.0867L10.5282 11.5108L13.0104 9.02925L13.0101 9.00203L13.2699 8.73996M4.02343 18.0867L13.2699 8.73996M13.2699 8.73996C13.6371 8.36874 13.6339 7.7701 13.2627 7.40286M16.7993 7.20056L15.8495 8.15042M9.63824 7.0378L9.63824 8.3811M7.29542 12.7518L11.2821 16.7385M16.8905 14.29L15.5472 14.29" stroke="currentColor" stroke-linecap="round"/>
</g>
<defs>
<clipPath id="clip0_1453_7169">
<rect width="24" height="24" fill="white"/>
</clipPath>
</defs>
</svg>
