<svg width="24" height="24" viewBox="0 0 24 24" fill="none" xmlns="http://www.w3.org/2000/svg">
<g clip-path="url(#clip0_1453_7198)">
<path d="M3.49983 20.4998L18.0354 5.96426M3.49983 20.4998L4.79072 19.2089C5.85244 18.1472 6.06102 16.5015 5.29776 15.2085M3.49983 20.4998L7.66552 16.3341C8.63609 15.3635 8.63609 13.79 7.66552 12.8194M3.49983 20.4998L11.2011 12.7986C11.7811 12.2185 11.7811 11.2781 11.2011 10.6981M3.49983 20.4998L15.7973 8.20238C16.182 7.8176 16.182 7.19376 15.7973 6.80898M3.49983 20.4998L14.383 9.61659C14.7678 9.23182 14.7678 8.60797 14.383 8.2232M3.49983 20.4998L4.80564 19.194C5.86557 18.1341 7.49803 17.9013 8.81197 18.6227M3.49983 20.4998L7.64471 16.3549C8.62677 15.3729 10.219 15.3729 11.2011 16.3549M3.49983 20.4998L11.1802 12.8194C11.7718 12.2279 12.7308 12.2279 13.3224 12.8194M3.49983 20.4998L15.7764 8.2232C16.1727 7.82692 16.8152 7.82692 17.2115 8.2232M3.49983 20.4998L14.3622 9.63741C14.7585 9.24114 15.401 9.24114 15.7973 9.63741M6.59301 11.7257L7.1257 12.6135C7.55192 13.3239 7.32158 14.2453 6.61121 14.6715C6.37808 14.8114 6.11133 14.8853 5.83946 14.8853L4.77407 14.8853C3.94564 14.8853 3.27407 14.2137 3.27407 13.3853C3.27407 13.1134 3.34796 12.8466 3.48783 12.6135L4.02053 11.7257C4.44675 11.0153 5.36814 10.785 6.07851 11.2112M6.59301 11.7257C6.46633 11.5146 6.28963 11.3379 6.07851 11.2112M6.59301 11.7257L6.99858 12.4041C7.13396 12.4443 7.27732 12.4658 7.42572 12.4658L8.49111 12.4658C8.76298 12.4658 9.02973 12.3919 9.26286 12.2521C9.97323 11.8259 10.2036 10.9045 9.77735 10.1941M6.07851 11.2112C6.03194 11.1832 5.98446 11.1581 5.93627 11.1358C5.92898 11.0805 5.92572 11.0236 5.92572 10.9658C5.92572 10.694 5.99961 10.4272 6.13948 10.1941L6.67218 9.30627C7.0984 8.5959 8.01979 8.36555 8.73016 8.79177M11.4069 16.8947L12.2948 17.4274C12.5059 17.5541 12.6826 17.7308 12.8093 17.9419C13.2355 18.6523 13.0051 19.5737 12.2948 19.9999M11.4069 16.8947C10.6966 16.4685 9.77518 16.6989 9.34895 17.4092C9.20908 17.6424 9.13519 17.9091 9.13519 18.181L9.13519 19.2464C9.13519 20.0748 9.80677 20.7464 10.6352 20.7464C10.9071 20.7464 11.1738 20.6725 11.4069 20.5326L12.2948 19.9999M11.4069 16.8947L11.616 17.0209C11.5761 16.8858 11.5546 16.7428 11.5546 16.5947L11.5546 15.5293C11.5546 15.2575 11.6285 14.9907 11.7684 14.7576C12.1946 14.0472 13.116 13.8169 13.8264 14.2431M12.2948 19.9999C12.9586 19.6016 13.2032 18.771 12.8838 18.0851C12.9398 18.0915 12.9968 18.0947 13.0546 18.0947C13.3265 18.0947 13.5932 18.0208 13.8264 17.881L14.7142 17.3483C15.4246 16.922 15.6549 16.0007 15.2287 15.2903M9.77735 10.1941L9.24466 9.30627C9.11798 9.09514 8.94128 8.91845 8.73016 8.79177M9.77735 10.1941C9.80587 10.2416 9.83145 10.2901 9.85414 10.3393L9.96126 10.3445L11.0266 10.3445C11.2985 10.3445 11.5653 10.2706 11.7984 10.1308C12.5088 9.70453 12.7391 8.78314 12.3129 8.07277L11.7802 7.18495C11.6535 6.97382 11.4768 6.79713 11.2657 6.67045C10.5553 6.24423 9.63393 6.47458 9.20771 7.18495L8.67502 8.07277C8.56545 8.25539 8.49637 8.45864 8.47283 8.66868C8.56075 8.70088 8.6469 8.74182 8.73016 8.79177M15.2287 15.2903C15.102 15.0792 14.9253 14.9025 14.7142 14.7758L13.8264 14.2431M15.2287 15.2903C15.2786 15.3735 15.3196 15.4597 15.3516 15.5489C15.5618 15.5241 15.7651 15.455 15.9477 15.3454L16.8355 14.8127C17.5459 14.3865 17.7762 13.4651 17.35 12.7548C17.2233 12.5436 17.0466 12.3669 16.8355 12.2403L15.9477 11.7076C15.2373 11.2813 14.3159 11.5117 13.8897 12.2221C13.7498 12.4552 13.6759 12.7219 13.6759 12.9938L13.6759 14.0592L13.6811 14.1663C13.7304 14.189 13.7788 14.2146 13.8264 14.2431M14.6482 5.83671C15.0628 6.52768 14.8387 7.42391 14.1478 7.8385C13.921 7.97455 13.6615 8.04642 13.3971 8.04642L13.2477 8.04642C12.4419 8.04642 11.7886 7.39318 11.7886 6.58738C11.7886 6.32294 11.8605 6.06347 11.9966 5.83671C12.4359 5.10448 13.3856 4.86704 14.1179 5.30638C14.3355 5.43695 14.5176 5.61909 14.6482 5.83671ZM18.8908 10.0794C19.3054 10.7703 19.0814 11.6666 18.3904 12.0811C18.1636 12.2172 17.9042 12.2891 17.6397 12.2891L17.4903 12.2891C16.6845 12.2891 16.0313 11.6358 16.0313 10.83C16.0313 10.5656 16.1031 10.3061 16.2392 10.0794C16.6785 9.34712 17.6283 9.10968 18.3605 9.54902C18.5781 9.67959 18.7603 9.86173 18.8908 10.0794ZM17.4766 4.4225C17.8912 5.11347 17.6672 6.0097 16.9762 6.42428C16.7494 6.56034 16.49 6.63221 16.2255 6.63221L16.0761 6.63221C15.2703 6.63221 14.6171 5.97897 14.6171 5.17317C14.6171 4.90872 14.6889 4.64925 14.825 4.4225C15.2643 3.69026 16.2141 3.45283 16.9463 3.89217C17.1639 4.02274 17.3461 4.20487 17.4766 4.4225ZM20.3051 7.25092C20.7196 7.9419 20.4956 8.83813 19.8046 9.25271C19.5779 9.38876 19.3184 9.46063 19.0539 9.46063L18.9045 9.46063C18.0987 9.46063 17.4455 8.8074 17.4455 8.00159C17.4455 7.73715 17.5174 7.47768 17.6534 7.25092C18.0927 6.51869 19.0425 6.28125 19.7747 6.72059C19.9923 6.85117 20.1745 7.0333 20.3051 7.25092ZM21.0122 3.71539C21.4267 4.40636 21.2027 5.30259 20.5117 5.71717C20.285 5.85323 20.0255 5.9251 19.761 5.9251L19.6116 5.9251C18.8058 5.9251 18.1526 5.27186 18.1526 4.46606C18.1526 4.20162 18.2245 3.94215 18.3605 3.71539C18.7999 2.98316 19.7496 2.74572 20.4818 3.18506C20.6995 3.31563 20.8816 3.49777 21.0122 3.71539Z" stroke="#00dc82" stroke-linecap="round"/>
</g>
<defs>
<clipPath id="clip0_1453_7198">
<rect width="24" height="24" fill="white"/>
</clipPath>
</defs>
</svg>
