<svg width="24" height="24" viewBox="0 0 24 24" fill="none" xmlns="http://www.w3.org/2000/svg">
<path fill-rule="evenodd" clip-rule="evenodd" d="M12.0001 21C16.0001 19.6667 18.0001 17.4412 18.0001 14.3235V12H6.00009V14.3235C6.00009 17.4412 8.00009 19.6667 12.0001 21ZM7.50009 7L10.2748 6.20722C10.7041 6.08456 11.0001 5.69218 11.0001 5.2457V4H13.0001L12.5576 4.88499C12.3106 5.37897 12.5108 5.97964 13.0048 6.22663C13.0701 6.25926 13.1387 6.28465 13.2095 6.30235L16.0001 7C18.1423 7.53555 19.4702 9.65674 19.0451 11.7991L19.0001 12H5.00009L4.88294 11.5314C4.39067 9.5623 5.54852 7.55759 7.50009 7Z" stroke="#00dc82" stroke-linecap="square"/>
</svg>
