<svg width="24" height="24" viewBox="0 0 24 24" fill="none" xmlns="http://www.w3.org/2000/svg">
<path fill-rule="evenodd" clip-rule="evenodd" d="M18.214 14.48C18.3605 14.3336 18.5979 14.3336 18.7443 14.48C18.8908 14.6265 18.8908 14.8639 18.7443 15.0103L18.4792 15.2755C18.1256 17.0433 17.6837 18.1923 17.1533 18.7226C16.3579 19.5181 15.2339 19.4549 14.5017 18.7226C13.7695 17.9904 13.7062 16.8665 14.5017 16.071C15.032 15.5407 16.1811 15.0987 17.9488 14.7452L18.214 14.48ZM5.19473 14.3302C5.29829 14.1508 5.52763 14.0894 5.70699 14.1929L6.03175 14.3804C7.83079 14.2644 9.05507 14.3939 9.70459 14.7689C10.6789 15.3314 10.9087 16.4334 10.3909 17.3302C9.87312 18.227 8.80387 18.579 7.82959 18.0165C7.18007 17.6415 6.45579 16.646 5.65675 15.0299L5.33199 14.8424C5.15263 14.7389 5.09118 14.5095 5.19473 14.3302ZM12.7928 6.70703C12.9999 6.70703 13.1678 6.87493 13.1678 7.08203V7.45703C14.1678 8.95703 14.6678 10.082 14.6678 10.832C14.6678 11.957 13.8283 12.707 12.7928 12.707C11.7573 12.707 10.9178 11.957 10.9178 10.832C10.9178 10.082 11.4178 8.95703 12.4178 7.45703V7.08203C12.4178 6.87493 12.5857 6.70703 12.7928 6.70703ZM17.8466 5.72083C18.8468 5.45281 19.8518 5.95999 20.143 7.04665C20.3371 7.7711 20.1453 8.98717 19.5676 10.6949L19.6646 11.0571C19.7182 11.2572 19.5995 11.4628 19.3995 11.5164C19.1994 11.57 18.9938 11.4513 18.9402 11.2512L18.8431 10.889C17.489 9.69893 16.7148 8.74167 16.5207 8.01722C16.2296 6.93056 16.8463 5.98884 17.8466 5.72083ZM7.49429 3.79706L7.56927 3.80926C7.76932 3.86286 7.88803 4.06849 7.83443 4.26854L7.73737 4.63076C8.31507 6.33847 8.50686 7.55454 8.31275 8.27899C8.02158 9.36565 7.0166 9.87283 6.01635 9.60481C5.0161 9.3368 4.39936 8.39508 4.69053 7.30842C4.88464 6.58397 5.65878 5.62671 7.01293 4.43664L7.10999 4.07442C7.16359 3.87437 7.36922 3.75565 7.56927 3.80926L7.49429 3.79706Z" stroke="currentColor" stroke-linecap="round"/>
</svg>
