<svg width="24" height="24" viewBox="0 0 24 24" fill="none" xmlns="http://www.w3.org/2000/svg">
<path fill-rule="evenodd" clip-rule="evenodd" d="M3.46533 20.5348L15.2109 8.78911L3.46533 20.5348ZM8.90751 9.23132C10.5261 10.4452 10.8541 12.7414 9.64015 14.36C9.48395 14.5682 9.30614 14.7591 9.10985 14.9293L8.90751 15.0926C7.28896 13.8787 6.96095 11.5825 8.17487 9.96396C8.33107 9.75569 8.50888 9.56486 8.70517 9.3946L8.90751 9.23132ZM11.8381 6.30067C13.4567 7.5146 13.7847 9.81077 12.5708 11.4293C12.4146 11.6376 12.2368 11.8284 12.0405 11.9987L11.8381 12.162C10.2196 10.948 9.89157 8.65186 11.1055 7.03331C11.2617 6.82505 11.4395 6.63422 11.6358 6.46396L11.8381 6.30067ZM14.7687 3.37003C16.3873 4.58395 16.7153 6.88013 15.5014 8.49867C15.3452 8.70694 15.1674 8.89777 14.9711 9.06803L14.7687 9.23132C13.1502 8.01739 12.8222 5.72122 14.0361 4.10267C14.1923 3.8944 14.3701 3.70358 14.5664 3.53332L14.7687 3.37003ZM20.63 9.23132C19.4161 10.8499 17.12 11.1779 15.5014 9.96399C15.2931 9.80778 15.1023 9.62997 14.932 9.43366L14.7687 9.23132C15.9826 7.61278 18.2788 7.28475 19.8973 8.49864C20.1056 8.65485 20.2964 8.83267 20.4667 9.02897L20.63 9.23132ZM17.6994 12.162C16.4855 13.7805 14.1893 14.1085 12.5708 12.8946C12.3625 12.7384 12.1717 12.5606 12.0014 12.3643L11.8381 12.162C13.052 10.5434 15.3482 10.2154 16.9667 11.4293C17.175 11.5855 17.3658 11.7633 17.5361 11.9596L17.6994 12.162ZM14.7687 15.0926C13.5549 16.7111 11.2587 17.0392 9.64019 15.8253C9.43191 15.6691 9.24107 15.4912 9.07081 15.2949L8.90751 15.0926C10.1214 13.4741 12.4175 13.146 14.0361 14.3599C14.2444 14.5161 14.4352 14.6939 14.6055 14.8903L14.7687 15.0926ZM5.90751 12.2313C7.52606 13.4452 7.85408 15.7414 6.64015 17.36C6.48395 17.5682 6.30614 17.7591 6.10985 17.9293L5.90751 18.0926C4.28896 16.8787 3.96095 14.5825 5.17487 12.964C5.33107 12.7557 5.50888 12.5649 5.70517 12.3946L5.90751 12.2313ZM11.7687 18.0926C10.5549 19.7111 8.25872 20.0392 6.64019 18.8253C6.43191 18.6691 6.24107 18.4912 6.07081 18.2949L5.90751 18.0926C7.1214 16.4741 9.41754 16.146 11.0361 17.3599C11.2444 17.5161 11.4352 17.6939 11.6055 17.8903L11.7687 18.0926ZM20.7376 3.26314C21.0237 5.26601 19.632 7.12158 17.6292 7.40769C17.3715 7.44451 17.1108 7.45371 16.8516 7.4353L16.5931 7.40765C16.3069 5.40481 17.6986 3.54925 19.7014 3.26314C20.0451 3.21405 20.3939 3.21405 20.7376 3.26314Z" stroke="#00dc82" stroke-linecap="round"/>
</svg>
